<?xml version="1.0" encoding="utf-8"?>
<!-- Generator: Adobe Illustrator 17.1.0, SVG Export Plug-In . SVG Version: 6.00 Build 0)  -->
<!DOCTYPE svg PUBLIC "-//W3C//DTD SVG 1.1//EN" "http://www.w3.org/Graphics/SVG/1.1/DTD/svg11.dtd">
<svg version="1.1" id="Layer_1" xmlns="http://www.w3.org/2000/svg" xmlns:xlink="http://www.w3.org/1999/xlink" x="0px" y="0px"
	 viewBox="0 0 60.7 52" enable-background="new 0 0 60.7 52" xml:space="preserve">
<path d="M53.2,10.5c-0.2-0.3-0.7-0.4-1-0.3c-0.2,0.1-15.8,8.2-29,21.7l-11-8c-0.3-0.2-0.7-0.2-1,0.1l-3.9,3.9
	C7.1,28.1,7,28.3,7,28.5c0,0.2,0.1,0.4,0.2,0.6L24,44.8c0.1,0.1,0.3,0.2,0.5,0.2c0,0,0.1,0,0.1,0c0.2,0,0.4-0.2,0.6-0.4
	c0.1-0.2,13.2-20.9,27.8-33.1C53.3,11.3,53.4,10.8,53.2,10.5"/>
</svg>
