<?xml version="1.0" encoding="utf-8"?>
<!-- Generator: Adobe Illustrator 17.1.0, SVG Export Plug-In . SVG Version: 6.00 Build 0)  -->
<!DOCTYPE svg PUBLIC "-//W3C//DTD SVG 1.1//EN" "http://www.w3.org/Graphics/SVG/1.1/DTD/svg11.dtd">
<svg version="1.1" id="Layer_1" xmlns="http://www.w3.org/2000/svg" xmlns:xlink="http://www.w3.org/1999/xlink" x="0px" y="0px"
	 viewBox="0 0 20 20" enable-background="new 0 0 20 20" xml:space="preserve">
<path fill="#939598" d="M17,8.8c-1.5-0.3-3.1-0.6-4.6-0.9c-0.5-0.1-0.9-0.2-1.4-0.3c-0.1,0-0.2,0-0.2-0.1c0-0.1,0.1-0.1,0.1-0.2
	c0.6-0.5,1.2-0.9,1.8-1.4c0.1-0.1,0.1-0.2,0-0.3c-1.4-0.9-3.6-0.7-4.8,0.5c-1.4,1.3-1.8,2.9-1.1,4.6c0.6,1.6,1.8,2.5,3.4,2.6
	c1.9,0.2,3.2-0.6,4.1-2.3c0.1-0.2,0.2-0.2,0.3-0.1c0.7,0.2,1.3,0.3,2,0.5c0.2,0,0.2,0.1,0.1,0.3c-0.8,1.9-2.2,3.2-4.2,3.8
	c-2.3,0.7-4.4,0.2-6.2-1.3c-1.3-1.1-2-2.4-2.2-4.1C3.6,6.6,6.2,3.4,9.6,2.9c1.9-0.3,3.5,0.2,5,1.3c0.1,0.1,0.2,0.1,0.4,0
	c0.6-0.5,1.2-1,1.8-1.4c0,0,0.1-0.1,0.1-0.1c0,0,0.1,0,0.1,0c0,0.1,0,0.1,0,0.2V8.8z"/>
</svg>
